<?xml version="1.0" standalone="no"?>
<!DOCTYPE svg PUBLIC "-//W3C//DTD SVG 20010904//EN"
 "http://www.w3.org/TR/2001/REC-SVG-20010904/DTD/svg10.dtd">
<svg version="1.0" xmlns="http://www.w3.org/2000/svg"
 width="1805.000000pt" height="1283.000000pt" viewBox="0 0 1805.000000 1283.000000"
 preserveAspectRatio="xMidYMid meet">

<g transform="translate(0.000000,1283.000000) scale(0.100000,-0.100000)"
fill="#000000" stroke="none">
<path d="M6979 9184 c-38 -47 85 -210 277 -364 82 -66 194 -95 194 -50 0 48
-55 128 -164 236 -112 111 -126 121 -225 168 -63 30 -65 31 -82 10z"/>
<path d="M6555 9093 c-4 -21 -12 -45 -19 -53 -18 -21 -36 -77 -36 -112 0 -16
-9 -47 -21 -70 -19 -36 -21 -60 -22 -210 l-2 -169 -22 26 c-13 14 -23 32 -23
40 0 8 -9 19 -20 25 -16 9 -22 6 -37 -16 -16 -25 -16 -27 5 -43 12 -9 28 -38
36 -65 17 -57 6 -90 -38 -120 -15 -9 -26 -22 -26 -29 0 -27 -20 -39 -84 -48
-37 -5 -77 -16 -89 -24 -12 -8 -30 -15 -40 -15 -21 0 -124 -47 -132 -61 -4 -5
-21 -15 -39 -23 -18 -8 -47 -27 -64 -42 -31 -29 -59 -52 -96 -78 -22 -15 -16
-46 10 -46 9 0 35 13 58 28 99 67 257 112 391 112 46 0 90 -3 99 -6 24 -9 19
-43 -6 -55 -40 -18 -79 -96 -80 -159 -2 -64 5 -92 33 -133 36 -55 78 -72 153
-64 44 5 56 12 92 51 48 52 50 51 85 -34 20 -50 22 -72 22 -235 0 -99 -6 -220
-13 -268 -10 -67 -11 -90 -2 -99 9 -9 12 -8 12 3 0 9 11 26 24 38 17 16 27 39
31 74 4 28 19 81 33 117 24 63 25 73 25 284 -1 191 -3 220 -17 228 -15 8 -15
12 0 37 23 39 12 71 -33 101 -20 14 -93 79 -160 145 -114 111 -123 123 -123
158 0 51 17 47 67 -15 158 -198 378 -337 399 -253 5 21 9 23 20 14 11 -9 25
-6 65 15 28 14 61 26 74 26 12 0 44 9 71 20 156 65 201 105 159 140 -15 13
-33 9 -159 -31 -65 -21 -233 0 -271 33 -5 5 11 29 42 61 28 28 56 62 62 74 26
50 3 168 -40 209 -35 34 -126 44 -182 21 -20 -9 -37 -21 -37 -26 0 -6 -7 -11
-15 -11 -8 0 -22 -11 -31 -25 -9 -14 -20 -23 -24 -20 -12 8 -30 124 -36 242
-6 96 -1 163 22 326 6 45 6 47 -19 47 -21 0 -26 -6 -32 -37z"/>
<path d="M4210 8664 c-19 -7 -50 -13 -67 -13 -18 -1 -52 -10 -75 -20 -24 -11
-57 -25 -75 -31 -49 -18 -125 -71 -166 -115 -20 -22 -47 -51 -60 -65 -13 -14
-27 -38 -31 -54 -4 -15 -17 -41 -29 -58 -20 -27 -22 -43 -25 -181 -4 -156 6
-220 33 -231 8 -3 15 -16 15 -30 0 -14 5 -37 10 -52 6 -15 8 -29 6 -32 -10
-10 -70 19 -114 56 -26 22 -57 42 -69 46 -11 4 -27 13 -33 21 -7 8 -20 15 -29
15 -9 0 -37 11 -63 25 -69 37 -166 36 -222 -2 -57 -39 -84 -72 -98 -118 -6
-22 -17 -47 -25 -56 -18 -21 -16 -97 2 -133 8 -16 18 -47 21 -70 4 -22 17 -57
29 -76 13 -19 26 -50 30 -68 4 -18 15 -37 26 -42 10 -6 19 -18 19 -26 0 -9 13
-29 30 -44 64 -60 56 -114 -21 -140 -24 -8 -56 -23 -69 -32 -13 -10 -30 -18
-37 -18 -14 0 -166 -77 -202 -102 l-24 -17 29 -28 c82 -79 153 -133 178 -133
14 0 51 14 81 30 30 17 60 30 66 30 9 0 105 45 149 70 140 78 202 78 280 0 22
-22 78 -60 88 -60 18 0 62 -42 62 -58 0 -16 -40 -42 -64 -42 -6 0 -24 -7 -41
-16 -16 -8 -54 -20 -82 -25 -29 -6 -65 -16 -80 -24 -16 -8 -37 -15 -48 -15
-11 0 -38 -9 -60 -19 -22 -10 -57 -21 -77 -25 -20 -3 -41 -13 -48 -21 -7 -8
-28 -17 -49 -21 -20 -4 -47 -15 -60 -25 -13 -11 -28 -19 -34 -19 -6 0 -18 -6
-26 -14 -9 -7 -30 -18 -48 -24 -51 -17 -273 -207 -273 -234 0 -3 -12 -21 -26
-38 -15 -17 -31 -51 -35 -76 -5 -24 -19 -58 -31 -75 -22 -30 -23 -38 -23 -239
l0 -209 28 -28 c18 -20 27 -40 27 -62 0 -23 10 -44 30 -68 17 -18 30 -39 30
-44 0 -6 11 -20 24 -30 14 -11 27 -32 31 -48 4 -17 14 -31 26 -34 11 -3 24
-18 30 -34 5 -15 30 -44 55 -63 25 -19 52 -47 60 -62 8 -16 18 -28 23 -28 8 0
48 -32 87 -70 12 -11 24 -20 27 -20 3 0 35 -20 71 -45 35 -25 89 -56 119 -70
30 -13 58 -29 62 -34 3 -6 14 -11 24 -11 10 0 24 -7 31 -15 7 -8 28 -18 48
-21 20 -4 50 -15 67 -26 16 -10 41 -18 55 -18 14 0 39 -9 55 -20 17 -11 47
-20 70 -20 22 0 54 -7 70 -16 17 -9 64 -20 105 -24 41 -5 93 -14 115 -19 60
-16 251 -13 315 4 30 8 70 15 87 15 18 0 56 9 85 20 29 11 60 20 69 20 47 0
223 99 296 167 72 67 173 191 173 213 0 10 11 31 24 47 14 16 28 42 32 56 3
15 14 32 24 37 10 6 22 20 25 32 4 13 19 36 34 51 24 26 26 35 26 115 0 80 -3
91 -30 133 -50 75 -97 111 -149 111 -24 0 -57 -7 -74 -16 -39 -20 -92 -99 -99
-145 -8 -68 -13 -80 -33 -91 -32 -17 -56 -4 -89 49 -28 43 -31 55 -31 129 0
70 3 85 21 103 11 11 27 36 35 55 12 28 108 133 156 169 52 40 94 68 149 99
18 10 39 25 47 32 7 8 18 14 24 14 5 0 47 18 91 39 45 22 100 43 122 47 22 4
46 13 53 21 7 7 23 13 35 13 12 0 38 8 57 18 19 11 62 22 95 26 33 4 69 13 80
20 11 7 61 16 111 19 50 4 106 13 125 20 36 15 289 30 327 20 21 -5 22 -11 22
-127 0 -105 -3 -127 -22 -161 -18 -34 -23 -69 -34 -245 -8 -136 -20 -232 -33
-285 -13 -48 -21 -112 -21 -160 0 -54 -5 -90 -16 -110 -21 -38 -43 -245 -44
-395 0 -98 -3 -121 -21 -155 -18 -33 -24 -72 -35 -215 -7 -104 -19 -195 -29
-225 -12 -34 -19 -102 -24 -211 -5 -135 -9 -165 -24 -182 -15 -16 -30 -110
-37 -233 0 -3 -11 -18 -25 -33 -14 -15 -25 -35 -25 -45 0 -18 -59 -72 -93 -84
-10 -4 -43 -23 -73 -43 -43 -29 -54 -41 -54 -63 0 -27 27 -59 80 -94 35 -24
174 -23 215 1 26 14 57 17 210 17 155 0 183 -2 205 -17 21 -15 47 -18 165 -17
l140 0 33 41 c38 48 39 64 7 101 -27 31 -109 77 -136 77 -22 0 -79 34 -127 77
l-37 31 -3 106 c-4 107 19 352 38 416 6 19 14 112 18 205 6 137 11 175 25 196
18 26 37 151 37 240 0 38 5 50 33 77 18 18 43 32 55 32 25 0 73 -44 96 -88 9
-17 27 -42 41 -56 14 -14 25 -34 25 -45 0 -11 11 -32 24 -48 13 -15 27 -39 31
-53 4 -14 18 -38 31 -53 13 -16 24 -35 24 -42 0 -8 14 -30 30 -48 17 -19 30
-42 30 -51 0 -9 11 -26 25 -38 14 -12 25 -32 25 -44 0 -13 13 -37 29 -53 16
-16 32 -43 36 -59 3 -16 17 -39 30 -51 14 -11 25 -29 25 -39 0 -10 11 -28 25
-40 14 -12 25 -30 25 -41 0 -10 14 -35 30 -56 17 -21 30 -46 30 -56 0 -11 11
-29 25 -40 13 -12 27 -35 30 -50 4 -16 10 -29 15 -29 17 0 40 -32 40 -54 0
-13 14 -40 30 -61 17 -21 30 -45 30 -55 0 -9 11 -27 24 -40 14 -12 28 -35 31
-51 4 -16 15 -34 25 -39 11 -6 24 -27 30 -48 5 -21 21 -48 35 -60 14 -12 25
-33 25 -46 0 -14 10 -30 24 -39 13 -9 26 -29 29 -45 3 -16 17 -42 30 -58 13
-16 27 -41 31 -56 3 -15 15 -30 26 -33 13 -4 23 -19 27 -36 3 -17 16 -37 29
-46 13 -8 24 -24 24 -34 0 -10 14 -28 30 -41 17 -12 30 -27 30 -32 0 -17 237
-256 253 -256 6 0 17 -7 26 -15 83 -77 313 -225 349 -225 8 0 26 -6 40 -14 97
-50 131 -56 314 -56 104 0 179 4 183 10 3 5 25 15 48 21 23 6 47 15 53 20 6 5
38 24 72 41 64 35 162 116 162 134 0 6 9 19 20 29 10 9 26 41 35 71 8 29 20
56 25 59 13 8 13 112 1 120 -5 3 -17 27 -25 53 -20 59 -69 100 -128 108 -44 6
-128 -10 -128 -25 0 -5 -14 -25 -30 -46 -30 -38 -30 -38 -28 -159 2 -138 -5
-159 -59 -177 -60 -19 -215 -6 -293 27 -54 22 -149 79 -195 116 -5 5 -28 22
-50 38 -74 56 -85 65 -123 102 -51 52 -92 97 -127 142 -16 21 -42 51 -57 67
-16 16 -28 35 -28 42 0 8 -11 24 -24 36 -13 13 -27 33 -30 45 -3 13 -17 28
-31 34 -16 8 -25 20 -25 35 0 14 -13 41 -30 62 -16 21 -30 44 -30 51 0 7 -11
26 -25 42 -14 17 -25 37 -25 45 0 9 -11 29 -25 45 -14 17 -32 46 -40 66 -9 20
-24 45 -35 56 -11 11 -20 29 -20 39 0 11 -9 26 -20 34 -11 7 -27 33 -35 57 -9
24 -24 52 -35 62 -11 11 -20 28 -20 38 0 11 -11 30 -24 41 -13 12 -27 32 -31
46 -3 14 -16 36 -29 50 -13 14 -26 38 -29 52 -3 15 -17 39 -31 54 -14 16 -26
36 -26 46 0 10 -11 27 -24 40 -12 12 -28 39 -34 60 -7 21 -21 46 -32 56 -11
10 -20 24 -20 31 0 7 -13 27 -30 44 -16 17 -30 39 -30 49 0 10 -9 26 -20 36
-10 9 -26 38 -35 64 -8 25 -23 51 -34 58 -10 6 -21 23 -25 37 -3 14 -17 36
-31 50 -14 14 -25 34 -25 45 0 11 -11 32 -24 48 -30 35 -42 86 -24 100 7 6 29
14 48 18 55 10 163 47 185 61 11 8 26 14 35 14 28 0 166 81 183 107 4 7 13 13
20 13 23 0 190 173 201 208 4 12 16 26 26 32 10 5 21 22 24 37 4 14 18 40 32
56 13 16 27 41 30 55 4 15 17 45 30 68 33 57 35 181 3 210 -11 10 -27 33 -34
51 -8 18 -19 33 -25 33 -6 0 -18 17 -27 37 -15 37 -32 62 -85 127 -16 19 -28
38 -28 43 0 6 -13 29 -30 51 -16 23 -30 46 -30 50 0 5 -10 17 -21 28 -12 10
-30 38 -40 62 -10 23 -23 42 -29 42 -6 0 -16 13 -21 29 -10 27 -78 91 -97 91
-5 0 -15 6 -21 14 -7 8 -28 17 -48 21 -20 3 -45 13 -57 20 -12 7 -39 17 -61
21 -22 4 -49 13 -60 20 -11 8 -37 14 -57 14 -21 0 -64 9 -95 20 -32 11 -80 20
-108 20 -28 0 -87 10 -131 22 -77 22 -94 23 -559 23 -437 0 -487 -2 -555 -19
-41 -10 -106 -22 -145 -26 -63 -7 -122 -20 -250 -51 -77 -19 -150 -41 -160
-48 -5 -4 -37 -17 -70 -30 -59 -22 -115 -47 -205 -90 -25 -12 -72 -42 -105
-67 -33 -24 -71 -52 -85 -62 -13 -9 -40 -35 -60 -56 -19 -22 -47 -53 -62 -68
-16 -16 -28 -35 -28 -42 0 -7 -13 -30 -30 -51 -20 -25 -30 -49 -30 -71 0 -21
-9 -42 -25 -60 -25 -26 -25 -30 -25 -189 0 -159 0 -163 25 -189 14 -15 25 -39
25 -54 0 -15 11 -37 25 -52 14 -14 44 -46 67 -71 24 -25 48 -48 53 -50 6 -2
27 -15 48 -28 29 -18 37 -29 37 -52 0 -15 -7 -34 -15 -41 -8 -7 -42 -38 -75
-70 -33 -31 -72 -59 -85 -62 -14 -3 -41 -17 -60 -30 -20 -14 -57 -32 -83 -41
-26 -10 -63 -25 -82 -35 -23 -11 -67 -19 -126 -22 -49 -3 -100 -10 -111 -17
-28 -14 -243 -15 -280 0 -15 6 -78 15 -140 19 -62 4 -118 12 -126 18 -7 6 -35
16 -62 22 -28 5 -68 18 -90 27 -103 43 -229 105 -261 129 -73 56 -165 154
-183 196 -10 24 -25 49 -34 56 -8 7 -18 34 -22 60 -4 26 -17 67 -28 92 -19 39
-22 62 -22 180 0 119 3 140 22 177 12 23 25 59 29 80 4 21 17 51 30 66 13 16
24 35 24 42 0 8 14 29 30 47 17 18 30 35 30 39 0 4 42 40 93 81 81 66 117 91
202 141 11 6 32 19 47 29 15 10 33 18 40 18 7 0 36 11 63 25 28 13 58 25 68
25 9 0 34 9 54 20 21 11 47 20 58 20 11 0 28 7 39 15 10 8 39 17 65 21 25 3
56 12 68 20 33 21 215 31 230 13 6 -8 13 -49 15 -91 4 -82 0 -76 85 -160 41
-41 90 -69 107 -62 8 3 11 154 11 509 l0 505 30 29 c48 47 76 49 122 8 l38
-35 1 -442 0 -441 26 -22 c14 -12 28 -30 31 -39 8 -22 74 -66 107 -70 l25 -3
7 525 c6 406 11 527 21 537 7 7 41 16 75 19 34 4 65 10 67 14 2 4 -21 32 -51
62 l-56 56 31 28 c17 15 31 33 31 40 0 8 11 21 25 30 14 9 28 27 31 39 3 13
17 33 30 46 13 12 24 31 24 40 0 10 11 34 24 54 32 47 39 96 35 247 -4 113 -6
127 -31 170 -16 26 -28 55 -28 65 0 10 -13 33 -30 51 -16 18 -30 37 -30 42 0
28 -165 165 -250 207 -14 7 -45 24 -69 38 -24 13 -67 27 -95 31 -28 3 -68 12
-89 20 -45 17 -129 16 -177 -2z m420 -192 c49 -9 111 -48 150 -96 23 -28 25
-38 28 -165 3 -123 2 -136 -17 -162 -12 -16 -26 -52 -31 -80 -11 -57 -16 -69
-42 -87 -10 -7 -18 -19 -18 -27 0 -8 -16 -30 -35 -49 -19 -20 -35 -40 -35 -46
0 -5 -28 -24 -62 -41 -89 -45 -164 -46 -208 -4 -45 43 -56 90 -40 174 12 63
17 73 56 105 23 20 46 36 50 36 4 0 14 7 23 15 9 8 31 27 50 43 l34 28 -25 27
c-14 15 -28 27 -32 27 -4 0 -29 18 -55 40 -43 36 -53 40 -103 40 -40 0 -62 -5
-81 -20 -14 -11 -30 -20 -36 -20 -6 0 -15 -9 -21 -20 -6 -11 -17 -20 -24 -20
-16 0 -26 -21 -26 -53 0 -12 -7 -35 -15 -51 -19 -36 -19 -113 0 -146 8 -14 14
-36 15 -48 0 -14 13 -35 30 -50 17 -15 30 -32 30 -38 0 -6 33 -37 73 -68 39
-31 78 -61 85 -67 42 -35 -30 -78 -134 -79 -94 0 -184 31 -241 83 -24 22 -43
44 -43 49 0 6 -11 23 -25 40 -24 28 -25 35 -25 162 0 121 2 136 21 160 12 15
26 46 31 68 5 23 18 48 28 55 11 8 20 20 20 28 0 13 50 81 92 123 31 32 122
92 139 92 8 1 32 9 54 20 22 11 60 20 85 20 25 1 63 5 85 10 41 9 117 6 195
-8z m-1019 -700 c13 -11 42 -22 63 -25 22 -3 44 -11 50 -17 6 -6 11 -37 11
-70 0 -51 -4 -63 -28 -88 -15 -15 -27 -34 -27 -40 0 -10 -71 -91 -130 -149
-37 -36 -126 -93 -145 -93 -12 0 -37 16 -56 36 l-34 35 0 140 c0 129 2 141 21
157 11 9 25 29 32 45 6 15 23 32 37 39 14 6 25 15 25 20 0 31 144 38 181 10z
m399 -287 c7 -8 18 -15 25 -15 6 0 31 -18 53 -41 l42 -41 0 -263 c0 -262 -6
-315 -34 -315 -12 0 -68 26 -126 59 -8 5 -31 16 -50 25 -19 9 -47 24 -62 34
-45 29 -137 82 -144 82 -3 0 -19 9 -35 21 -35 24 -39 70 -10 97 38 33 55 47
72 57 9 6 33 30 53 55 20 25 48 57 61 73 14 15 25 36 25 46 0 11 11 33 25 49
14 17 25 32 25 35 0 3 4 17 10 31 11 30 50 36 70 11z m2960 -1101 c55 -4 113
-15 138 -25 24 -11 52 -19 62 -19 23 0 120 -50 120 -61 0 -5 7 -9 15 -9 23 0
117 -62 146 -97 13 -16 32 -32 41 -36 10 -3 20 -19 24 -34 4 -15 18 -38 33
-50 l26 -21 0 -184 0 -183 -28 -36 c-15 -20 -27 -45 -27 -57 0 -12 -13 -35
-30 -52 -16 -17 -30 -35 -30 -39 0 -14 -106 -121 -119 -121 -7 0 -27 -11 -44
-24 -55 -41 -138 -76 -245 -102 -91 -22 -121 -25 -242 -22 -97 2 -143 7 -152
16 -20 20 -17 151 5 183 21 31 25 65 37 299 5 117 15 200 28 250 11 41 23 120
27 175 3 54 11 108 17 119 6 11 13 42 17 70 5 40 11 53 31 63 14 7 32 11 40 8
8 -2 58 -7 110 -11z"/>
<path d="M8659 7436 c-2 -2 -27 -6 -56 -9 -29 -3 -56 -8 -61 -10 -4 -3 -47 -7
-94 -8 -48 -2 -84 -7 -82 -11 3 -4 119 -8 257 -9 299 0 332 -4 332 -39 0 -47
-39 -57 -254 -63 -106 -4 -196 -9 -199 -12 -3 -3 46 -5 109 -6 63 0 125 -2
139 -4 14 -2 77 -9 140 -15 157 -17 152 -16 178 -24 23 -8 30 -40 11 -51 -6
-4 -56 -9 -112 -11 -143 -6 -207 -14 -207 -25 0 -5 62 -9 143 -10 78 0 211 -2
295 -4 139 -3 152 -2 152 14 0 13 -13 20 -52 27 -47 8 -53 12 -56 36 -3 22 1
27 30 34 18 4 61 7 96 6 35 -1 96 5 135 13 40 8 84 15 100 15 46 0 30 18 -20
22 -27 3 -135 6 -242 7 -107 1 -203 7 -213 12 -19 10 -25 54 -7 64 28 18 -7
26 -122 29 -94 2 -131 7 -150 19 -17 12 -33 14 -59 8 -19 -4 -46 -4 -60 0 -29
8 -65 11 -71 5z"/>
<path d="M8715 6987 c-14 -11 -16 -21 -11 -48 4 -24 1 -41 -11 -58 -15 -23
-15 -25 3 -38 10 -8 44 -21 74 -30 46 -13 93 -15 301 -10 135 3 250 2 256 -1
15 -10 25 -49 14 -56 -5 -3 -12 -23 -16 -44 -3 -20 -20 -53 -36 -71 l-29 -35
-203 -2 c-188 -1 -206 -3 -246 -24 -35 -17 -53 -20 -90 -15 -25 3 -91 5 -146
5 -82 -1 -105 -5 -130 -22 -16 -11 -23 -18 -13 -15 25 9 51 -27 44 -60 -6 -26
-3 -30 32 -46 21 -9 58 -17 81 -17 23 0 58 -7 77 -15 30 -12 35 -19 32 -42 -3
-25 -7 -28 -46 -30 -54 -3 -82 -18 -82 -43 0 -38 27 -41 339 -34 298 7 299 7
330 -15 20 -14 31 -31 31 -46 0 -13 11 -37 25 -53 35 -42 51 -90 36 -105 -19
-18 -418 -11 -495 8 -48 13 -61 13 -68 3 -14 -22 -3 -32 43 -40 24 -4 49 -15
55 -23 20 -27 96 -45 233 -55 75 -5 152 -14 171 -20 74 -21 224 -5 280 31 8 5
39 21 69 36 53 25 56 26 84 10 24 -15 60 -17 240 -16 117 1 204 3 195 6 -10 2
-18 13 -18 24 0 28 56 49 128 49 41 0 63 5 72 15 16 20 16 20 -54 34 -54 10
-75 22 -76 44 0 8 13 14 108 47 34 12 62 28 62 36 0 20 -201 104 -249 104 -10
0 -31 10 -45 21 l-28 22 -26 -20 c-19 -14 -57 -24 -124 -32 -103 -12 -276 -15
-302 -5 -12 5 -16 21 -16 75 0 62 -3 71 -27 94 -15 14 -33 25 -39 25 -6 0 -21
9 -34 20 -13 11 -29 20 -37 20 -7 0 -16 6 -19 14 -3 8 -19 20 -35 26 -34 14
-37 33 -9 53 11 8 23 28 26 46 4 17 15 38 26 45 12 9 16 16 9 21 -18 10 -13
43 8 55 12 6 126 10 299 10 236 0 281 2 292 15 7 8 28 15 46 15 41 0 114 28
114 44 0 6 -20 19 -43 29 -23 10 -64 29 -92 41 -86 40 -167 52 -320 46 -38 -1
-86 1 -105 5 -29 5 -50 0 -110 -29 -65 -32 -84 -36 -150 -36 -41 0 -100 7
-130 16 -68 18 -245 26 -322 13 -53 -8 -60 -7 -94 16 -41 28 -81 32 -109 12z
m520 -479 c50 -22 42 -91 -19 -162 l-34 -39 -155 -5 c-203 -6 -220 -3 -251 51
-31 53 -33 120 -5 148 18 18 35 19 229 19 138 0 218 -4 235 -12z m190 -4 c26
-26 15 -49 -26 -52 -40 -3 -52 10 -42 47 7 26 44 28 68 5z m145 -256 c0 -10
36 -12 157 -10 197 4 230 -1 282 -41 38 -29 41 -35 41 -78 0 -42 -4 -50 -31
-70 -29 -20 -54 -24 -249 -37 -191 -13 -221 -13 -247 0 -25 13 -32 13 -51 0
-28 -19 -57 -8 -72 28 -7 16 -21 40 -32 52 -12 14 -18 33 -16 53 3 27 12 34
88 72 87 43 130 53 130 31z"/>
<path d="M9496 6114 c-9 -23 -7 -54 3 -54 9 0 21 33 21 58 0 17 -17 15 -24 -4z"/>
<path d="M9491 6673 c0 -4 4 -17 9 -28 8 -19 9 -19 9 2 1 12 -3 25 -9 28 -5 3
-10 3 -9 -2z"/>
<path d="M9870 6586 c-91 -12 -196 -13 -267 -2 -41 6 -53 4 -53 -6 1 -44 53
-59 191 -57 215 4 234 2 269 -28 18 -14 35 -36 39 -47 7 -18 15 -20 107 -17
126 3 233 16 247 30 6 6 12 21 14 33 5 34 25 49 72 55 35 5 41 9 41 29 0 29
-27 32 -94 9 -30 -10 -93 -16 -198 -18 -134 -2 -157 0 -181 16 -30 19 -58 20
-187 3z"/>
<path d="M13365 6468 c-11 -7 -47 -15 -80 -19 -55 -6 -64 -11 -115 -60 -31
-30 -82 -67 -115 -83 -33 -16 -66 -34 -73 -39 -7 -6 -34 -18 -60 -27 -57 -21
-205 -81 -211 -86 -2 -2 8 -15 22 -28 25 -24 45 -71 34 -82 -11 -11 -49 8
-100 50 -74 60 -103 64 -150 20 -20 -20 -37 -40 -37 -45 0 -5 -11 -15 -25 -21
-21 -9 -25 -18 -25 -51 0 -38 1 -39 18 -24 17 15 64 37 91 43 8 1 27 -4 42
-12 16 -8 37 -14 47 -14 11 0 26 -7 33 -16 11 -14 10 -18 -6 -30 -10 -8 -33
-14 -51 -14 -47 0 -84 -16 -124 -55 -19 -18 -72 -58 -117 -87 -67 -45 -79 -57
-72 -71 14 -23 45 -21 88 6 90 56 120 70 188 87 40 11 58 11 78 2 35 -16 31
-36 -16 -82 -45 -44 -72 -49 -120 -24 -28 14 -33 14 -55 -1 -32 -21 -27 -37
17 -48 42 -11 51 -19 53 -49 1 -14 8 -24 21 -26 11 -2 39 -13 62 -23 23 -10
56 -19 73 -19 17 0 45 -7 61 -16 17 -8 52 -19 77 -24 46 -8 117 -30 179 -56
18 -7 55 -16 83 -20 46 -6 52 -4 76 21 23 25 27 26 41 12 20 -20 10 -47 -17
-47 -36 0 -13 -17 32 -24 23 -4 50 -14 59 -22 15 -14 18 -12 27 15 6 16 20 34
31 41 14 7 21 21 21 39 0 16 13 44 30 66 17 21 30 48 30 60 0 12 11 32 25 45
14 13 28 39 31 57 4 19 17 46 29 61 12 15 25 41 29 58 4 17 18 46 32 65 13 18
24 45 24 60 0 16 11 40 25 55 13 14 28 43 31 63 4 20 17 49 30 64 13 16 24 39
24 52 0 13 11 37 25 53 24 28 54 137 41 149 -11 12 -86 -62 -97 -96 -14 -44
-46 -80 -96 -106 -21 -11 -64 -43 -96 -71 -90 -80 -151 -84 -111 -7 10 21 22
42 27 48 4 5 18 26 30 45 21 33 27 35 100 44 75 9 77 10 77 36 0 41 54 114 97
133 21 8 43 17 50 19 8 2 9 8 3 18 -7 11 -30 15 -96 15 l-87 0 -12 -47 c-14
-55 -30 -78 -57 -78 -29 0 -97 -42 -104 -65 -3 -11 -17 -31 -29 -45 -13 -14
-26 -39 -29 -55 -7 -31 -112 -155 -133 -155 -19 0 -22 24 -5 43 12 14 13 22 4
43 -20 43 -14 72 18 96 25 18 30 29 30 62 0 64 9 83 51 112 31 21 46 25 75 21
20 -4 45 -2 55 3 16 9 17 13 4 38 -8 15 -16 35 -19 45 -6 20 -14 21 -41 5z
m-200 -178 c8 -13 -14 -80 -26 -80 -5 0 -9 20 -9 45 0 33 4 45 14 45 8 0 18
-5 21 -10z m-235 -251 c47 -29 154 -112 159 -123 2 -5 16 -22 32 -39 58 -61
76 -179 32 -222 -23 -23 -88 -16 -88 9 0 10 8 23 18 27 9 5 25 13 34 17 27 14
26 28 -6 65 -17 19 -31 40 -31 46 0 6 -11 18 -24 26 -14 9 -29 29 -35 45 -15
44 -100 83 -86 39 14 -43 -2 -66 -77 -104 -112 -57 -178 -44 -178 34 1 41 51
104 133 165 56 42 70 43 117 15z m473 -52 c3 -9 -9 -17 -38 -25 -27 -7 -53
-24 -73 -47 -35 -39 -44 -42 -62 -20 -18 22 31 81 78 93 54 14 89 14 95 -1z
m81 -68 c34 -27 33 -43 -7 -73 -46 -36 -67 -34 -67 4 0 33 25 90 39 90 5 0 20
-9 35 -21z m-504 -114 c45 -23 67 -79 36 -91 -16 -6 -79 33 -96 60 -10 16 -9
22 6 33 22 16 19 16 54 -2z m-224 -104 c17 -11 48 -36 68 -56 40 -40 44 -70
13 -89 -14 -9 -21 -7 -32 8 -8 10 -16 23 -18 29 -2 6 -31 12 -65 15 -75 5 -92
20 -66 59 19 31 44 52 59 53 6 0 24 -9 41 -19z"/>
<path d="M10940 6309 c-88 -15 -140 -29 -169 -44 -17 -8 -39 -15 -50 -15 -22
0 -76 -42 -92 -72 -9 -17 -6 -26 21 -53 38 -39 95 -58 148 -49 37 6 40 5 45
-22 10 -56 -4 -218 -23 -259 -14 -31 -21 -87 -31 -251 -13 -237 -18 -253 -79
-255 -19 -1 -61 2 -92 6 -97 13 -268 -23 -346 -72 -41 -26 -162 -126 -162
-134 0 -4 -24 -33 -54 -65 -30 -32 -58 -69 -61 -83 -4 -14 -15 -35 -25 -46
-10 -11 -23 -38 -29 -61 -6 -22 -19 -49 -30 -58 -10 -9 -22 -38 -26 -63 -4
-25 -15 -58 -26 -73 -26 -34 -36 -188 -29 -432 5 -166 6 -178 28 -200 12 -14
22 -32 22 -41 0 -9 13 -30 29 -46 16 -17 33 -36 38 -43 13 -20 84 -64 134 -83
87 -32 262 -8 341 47 14 10 30 18 35 18 5 0 43 32 85 70 42 39 82 70 90 70 7
0 31 -21 53 -47 70 -83 128 -133 162 -139 48 -9 118 4 144 26 12 11 26 20 31
20 10 0 31 18 91 79 77 78 89 93 99 130 6 20 19 46 29 60 11 13 19 31 19 40
-1 29 -60 106 -88 113 -23 7 -32 2 -65 -35 -121 -135 -137 -145 -170 -109 -13
15 -17 38 -16 108 1 172 15 306 37 349 15 30 22 69 26 160 4 66 13 140 21 165
22 71 51 272 44 305 -15 66 -9 125 15 174 21 40 27 73 36 192 6 79 19 180 30
224 11 44 25 134 30 200 5 66 12 139 16 163 5 32 2 52 -12 77 -31 59 -102 76
-224 54z m-241 -1218 c26 -14 28 -72 6 -148 -19 -63 -35 -211 -35 -326 0 -73
-3 -93 -21 -116 -14 -19 -23 -50 -26 -92 -6 -66 -21 -106 -47 -128 -9 -8 -16
-21 -16 -31 0 -20 -91 -107 -130 -123 -14 -6 -36 -19 -49 -29 -32 -24 -86 -23
-130 4 -69 42 -111 81 -111 103 0 12 -11 43 -25 69 -31 59 -33 126 -5 179 11
20 24 66 29 101 5 34 18 81 29 103 12 22 24 63 28 91 4 35 14 57 30 71 13 12
24 30 24 41 0 10 14 33 30 50 17 17 30 37 30 45 0 8 8 20 18 27 10 7 28 28 41
46 12 17 28 32 35 32 7 0 21 9 31 19 9 11 34 22 54 24 59 8 187 0 210 -12z"/>
<path d="M12389 5943 c-2 -4 -23 -20 -46 -36 -42 -27 -51 -41 -35 -51 5 -3 16
8 26 25 9 16 23 29 30 29 16 0 41 28 33 36 -2 3 -7 2 -8 -3z"/>
<path d="M12266 5834 c-10 -25 -7 -34 9 -28 8 4 15 15 15 25 0 23 -16 25 -24
3z"/>
<path d="M12260 5680 c0 -6 8 -13 18 -17 9 -3 24 -12 32 -18 8 -7 37 -16 64
-20 27 -3 56 -9 65 -12 37 -13 -38 35 -86 55 -56 24 -93 28 -93 12z"/>
<path d="M8465 5615 c-16 -8 -40 -14 -53 -15 -37 0 -37 -27 0 -73 72 -88 149
-206 224 -342 24 -44 45 -65 65 -65 14 0 19 12 25 56 10 87 -1 203 -24 233
-10 14 -22 47 -26 72 -8 51 -49 105 -103 132 -38 20 -67 20 -108 2z"/>
<path d="M9285 5616 c-15 -11 -20 -30 -23 -87 -3 -52 -10 -82 -24 -102 -11
-15 -24 -58 -29 -95 -5 -37 -21 -99 -34 -139 -14 -39 -25 -91 -25 -114 0 -29
-8 -54 -25 -78 -17 -26 -26 -56 -31 -106 -4 -47 -13 -77 -25 -91 -10 -11 -23
-42 -28 -69 -5 -27 -16 -54 -24 -60 -17 -12 -9 -34 29 -75 46 -51 158 -222
236 -360 33 -58 72 -126 88 -152 33 -53 85 -169 95 -210 10 -41 -10 -35 -39
10 -13 20 -31 43 -40 51 -9 7 -16 17 -16 22 0 5 -28 48 -62 96 -65 91 -108
153 -242 348 l-78 115 -23 -25 c-13 -13 -27 -35 -30 -47 -4 -13 -20 -44 -36
-69 -16 -25 -29 -53 -29 -62 0 -8 -11 -24 -24 -34 -13 -10 -27 -30 -31 -43 -8
-24 -32 -54 -95 -116 -24 -24 -43 -34 -60 -32 -46 5 -52 34 -44 243 5 157 10
197 26 233 36 80 43 319 9 330 -7 2 -21 25 -32 50 -11 25 -29 52 -39 59 -11 8
-20 23 -20 33 0 11 -13 32 -30 47 -16 14 -30 34 -30 44 0 9 -11 24 -25 33 -14
9 -25 26 -25 37 0 11 -11 30 -24 42 -13 12 -26 32 -30 45 -4 12 -18 29 -31 38
-12 8 -25 28 -29 44 -7 38 -34 80 -52 80 -18 0 -30 -26 -37 -76 -2 -23 -15
-56 -28 -74 -22 -29 -24 -43 -27 -173 -2 -82 1 -148 7 -157 15 -22 63 -1 80
35 8 17 25 43 38 58 12 16 23 37 23 46 0 23 37 71 55 71 22 0 28 -58 23 -223
-3 -122 -8 -159 -23 -187 -13 -26 -20 -70 -26 -175 -5 -77 -15 -171 -23 -210
-27 -125 -41 -327 -27 -402 17 -94 51 -195 71 -213 10 -8 23 -25 29 -37 25
-49 159 -56 236 -13 22 13 65 49 96 81 32 33 62 59 68 59 6 0 11 4 11 9 0 5
16 28 35 51 19 23 35 48 35 54 0 7 14 27 30 44 17 18 30 40 30 51 0 10 14 35
30 56 17 21 30 42 30 46 0 14 46 11 58 -3 5 -7 12 -77 14 -155 3 -131 5 -144
26 -166 13 -13 27 -40 33 -59 12 -46 73 -88 127 -88 54 0 214 79 230 115 7 14
12 32 12 40 0 8 11 22 24 30 14 9 29 30 35 47 6 17 19 37 30 44 10 8 21 30 24
55 3 22 15 51 26 63 11 12 24 37 27 56 4 19 17 53 30 75 14 24 25 65 29 105
l7 65 -40 38 c-63 59 -91 49 -106 -38 -4 -22 -16 -49 -26 -60 -9 -11 -23 -38
-30 -60 -7 -22 -21 -49 -31 -60 -11 -11 -29 -32 -40 -47 -11 -16 -29 -28 -40
-28 -37 0 -42 40 -35 305 5 239 26 491 42 517 4 7 11 58 15 114 4 56 14 114
22 130 17 34 25 86 37 241 5 71 14 121 24 134 29 42 13 49 -118 49 -89 0 -127
-4 -141 -14z"/>
<path d="M12045 5481 c-40 -10 -70 -26 -135 -74 -52 -38 -170 -155 -170 -168
0 -4 -8 -10 -17 -14 -22 -8 -63 36 -63 66 0 24 -29 66 -80 115 -87 86 -222 72
-357 -35 -18 -14 -33 -31 -33 -37 0 -5 -13 -23 -30 -39 -16 -16 -30 -34 -30
-41 0 -6 -9 -23 -21 -38 -59 -75 -64 -323 -7 -364 10 -7 18 -20 18 -28 0 -14
68 -84 81 -84 3 0 9 27 12 61 3 34 12 68 21 78 9 9 21 33 27 52 7 19 30 55 52
82 47 56 82 62 124 21 25 -25 26 -28 21 -137 -3 -62 -13 -137 -21 -167 -10
-33 -20 -126 -25 -230 -6 -125 -13 -184 -24 -205 -20 -38 -41 -275 -36 -415
l3 -105 135 -3 c74 -1 141 2 148 6 8 6 17 45 22 103 14 137 27 227 45 289 8
30 15 89 15 132 0 58 5 87 20 116 22 43 40 164 40 277 0 53 5 78 21 104 12 19
25 62 29 94 6 37 17 68 29 81 12 12 21 30 21 39 0 22 65 94 101 113 16 8 38
14 50 14 27 0 109 -86 109 -114 0 -12 4 -27 9 -34 12 -20 57 5 72 41 7 16 23
42 35 56 28 33 44 156 32 242 -7 51 -13 66 -45 96 -62 58 -117 73 -198 54z"/>
<path d="M13275 5303 c-17 -40 -54 -78 -84 -88 -11 -3 -42 1 -68 10 -64 22
-203 22 -280 0 -60 -16 -160 -65 -195 -94 -55 -45 -159 -153 -173 -180 -8 -17
-20 -31 -26 -31 -5 0 -17 -17 -26 -37 -8 -21 -21 -42 -28 -48 -7 -5 -18 -28
-25 -50 -7 -22 -21 -49 -31 -60 -10 -11 -23 -41 -28 -67 -6 -26 -20 -62 -31
-80 -11 -18 -22 -53 -25 -78 -4 -25 -17 -78 -31 -118 -22 -66 -24 -88 -24
-255 0 -180 0 -184 25 -217 14 -19 25 -40 25 -47 0 -7 14 -27 30 -45 17 -17
30 -37 30 -43 0 -23 66 -63 131 -80 55 -15 73 -16 129 -5 88 17 167 54 230
108 8 7 32 25 52 40 20 16 48 43 63 60 26 31 75 45 75 21 0 -7 11 -22 25 -35
16 -15 25 -34 25 -54 0 -23 9 -39 30 -58 17 -15 30 -32 30 -39 0 -7 17 -20 38
-29 52 -22 128 -15 172 17 43 31 99 91 100 106 0 6 9 18 21 26 11 8 27 35 36
59 8 23 23 52 32 63 16 17 30 66 47 155 3 20 -4 32 -41 60 -59 46 -61 46 -73
10 -6 -16 -18 -33 -26 -36 -8 -3 -18 -19 -21 -36 -10 -41 -62 -98 -91 -98 -14
0 -30 10 -40 25 -24 36 -14 287 16 400 13 50 23 127 26 205 5 104 9 130 27
154 15 22 22 54 29 127 4 57 16 120 28 150 12 29 24 80 27 115 5 58 4 63 -21
85 -15 13 -43 29 -62 36 -34 12 -34 12 -49 -24z m-186 -274 c28 -17 32 -24 26
-47 -3 -15 -9 -67 -13 -115 -4 -50 -12 -91 -19 -95 -22 -13 -35 -66 -40 -162
-5 -75 -11 -104 -29 -136 -18 -31 -24 -56 -24 -103 0 -47 -6 -72 -24 -104 -13
-23 -27 -59 -30 -79 -5 -29 -26 -56 -94 -126 -73 -73 -96 -91 -135 -100 -61
-16 -92 -15 -126 3 -34 17 -81 70 -81 91 0 8 -12 37 -26 65 -25 46 -26 57 -21
135 3 57 11 93 23 111 9 15 23 65 30 111 7 49 19 91 29 102 9 10 21 38 26 61
6 23 21 55 34 71 14 16 25 38 25 49 0 10 14 33 30 51 17 17 30 34 30 37 0 13
103 113 143 139 75 48 110 60 172 61 44 1 69 -5 94 -20z"/>
</g>
</svg>
